<mxfile host="app.diagrams.net" agent="Mozilla/5.0 (X11; Linux x86_64; rv:134.0) Gecko/20100101 Firefox/134.0" version="26.0.10">
  <diagram name="Page-1" id="U1ppwDl6W-6Wr9IJYZDx">
    <mxGraphModel dx="1793" dy="1134" grid="1" gridSize="10" guides="1" tooltips="1" connect="1" arrows="1" fold="1" page="1" pageScale="1" pageWidth="850" pageHeight="1100" math="0" shadow="0">
      <root>
        <mxCell id="0" />
        <mxCell id="1" parent="0" />
        <mxCell id="uUps8iylp9dzqpl-eoPC-1" value="Document: Proof of secured livelihood" style="whiteSpace=wrap;strokeWidth=2;" vertex="1" parent="1">
          <mxGeometry x="4517" y="371" width="260" height="78" as="geometry" />
        </mxCell>
        <mxCell id="uUps8iylp9dzqpl-eoPC-2" value="Document: Resume/CV" style="whiteSpace=wrap;strokeWidth=2;" vertex="1" parent="1">
          <mxGeometry x="5886" y="1083" width="228" height="54" as="geometry" />
        </mxCell>
        <mxCell id="uUps8iylp9dzqpl-eoPC-3" value="Document: Residence permit application" style="whiteSpace=wrap;strokeWidth=2;" vertex="1" parent="1">
          <mxGeometry x="7858" y="2025" width="260" height="78" as="geometry" />
        </mxCell>
        <mxCell id="uUps8iylp9dzqpl-eoPC-4" value="Document: Confirmation of payment of the administrative charge at the immigration office" style="whiteSpace=wrap;strokeWidth=2;" vertex="1" parent="1">
          <mxGeometry x="7548" y="2001" width="260" height="126" as="geometry" />
        </mxCell>
        <mxCell id="uUps8iylp9dzqpl-eoPC-5" value="Document: Enrolment certificate from HTW Dresden" style="whiteSpace=wrap;strokeWidth=2;" vertex="1" parent="1">
          <mxGeometry x="55" y="1059" width="260" height="102" as="geometry" />
        </mxCell>
        <mxCell id="uUps8iylp9dzqpl-eoPC-6" value="Document: Signed request for HTW login" style="whiteSpace=wrap;strokeWidth=2;" vertex="1" parent="1">
          <mxGeometry x="4956" y="1071" width="260" height="78" as="geometry" />
        </mxCell>
        <mxCell id="uUps8iylp9dzqpl-eoPC-7" value="Document: Letter of Admission" style="whiteSpace=wrap;strokeWidth=2;" vertex="1" parent="1">
          <mxGeometry x="5512" y="1503" width="260" height="78" as="geometry" />
        </mxCell>
        <mxCell id="uUps8iylp9dzqpl-eoPC-9" value="Document: Rental Agreement" style="whiteSpace=wrap;strokeWidth=2;" vertex="1" parent="1">
          <mxGeometry x="5626" y="1820" width="260" height="78" as="geometry" />
        </mxCell>
        <mxCell id="uUps8iylp9dzqpl-eoPC-10" value="Document: Visa for study purposes" style="whiteSpace=wrap;strokeWidth=2;" vertex="1" parent="1">
          <mxGeometry x="2450" y="709" width="260" height="78" as="geometry" />
        </mxCell>
        <mxCell id="uUps8iylp9dzqpl-eoPC-13" value="Document: Transcript of Records of HTW Dresden" style="whiteSpace=wrap;strokeWidth=2;" vertex="1" parent="1">
          <mxGeometry x="985" y="1071" width="260" height="78" as="geometry" />
        </mxCell>
        <mxCell id="uUps8iylp9dzqpl-eoPC-14" value="Document: Registration Certificate: Citizens&#39; Office Dresden" style="whiteSpace=wrap;strokeWidth=2;" vertex="1" parent="1">
          <mxGeometry x="675" y="1059" width="260" height="102" as="geometry" />
        </mxCell>
        <mxCell id="uUps8iylp9dzqpl-eoPC-15" value="Document: Residency permit for academic purposes" style="whiteSpace=wrap;strokeWidth=2;" vertex="1" parent="1">
          <mxGeometry x="5647" y="2479" width="260" height="102" as="geometry" />
        </mxCell>
        <mxCell id="uUps8iylp9dzqpl-eoPC-16" value="Document: (Online) Learning Agreement" style="whiteSpace=wrap;strokeWidth=2;" vertex="1" parent="1">
          <mxGeometry x="5583" y="1071" width="260" height="78" as="geometry" />
        </mxCell>
        <mxCell id="uUps8iylp9dzqpl-eoPC-17" value="Document: Proof of a valid study visa" style="whiteSpace=wrap;strokeWidth=2;" vertex="1" parent="1">
          <mxGeometry x="4543" y="1071" width="260" height="78" as="geometry" />
        </mxCell>
        <mxCell id="uUps8iylp9dzqpl-eoPC-18" value="Document: Personal HTWD Login" style="whiteSpace=wrap;strokeWidth=2;" vertex="1" parent="1">
          <mxGeometry x="2434" y="1071" width="260" height="78" as="geometry" />
        </mxCell>
        <mxCell id="uUps8iylp9dzqpl-eoPC-19" value="Document: Confirmation of payment of the Semester Contribution" style="whiteSpace=wrap;strokeWidth=2;" vertex="1" parent="1">
          <mxGeometry x="3208" y="697" width="260" height="102" as="geometry" />
        </mxCell>
        <mxCell id="uUps8iylp9dzqpl-eoPC-20" value="Document: Proof of language proficiency" style="whiteSpace=wrap;strokeWidth=2;" vertex="1" parent="1">
          <mxGeometry x="5266" y="1071" width="260" height="78" as="geometry" />
        </mxCell>
        <mxCell id="uUps8iylp9dzqpl-eoPC-21" value="Document: German tax identification number" style="whiteSpace=wrap;strokeWidth=2;" vertex="1" parent="1">
          <mxGeometry x="365" y="1071" width="260" height="78" as="geometry" />
        </mxCell>
        <mxCell id="uUps8iylp9dzqpl-eoPC-22" value="Document: Current biometric photo" style="whiteSpace=wrap;strokeWidth=2;" vertex="1" parent="1">
          <mxGeometry x="3897" y="371" width="260" height="78" as="geometry" />
        </mxCell>
        <mxCell id="uUps8iylp9dzqpl-eoPC-23" value="Document: Confirmation of payment of the administrative charge for visa" style="whiteSpace=wrap;strokeWidth=2;" vertex="1" parent="1">
          <mxGeometry x="4207" y="347" width="260" height="126" as="geometry" />
        </mxCell>
        <mxCell id="uUps8iylp9dzqpl-eoPC-24" value="Document: Application for admission to studies" style="whiteSpace=wrap;strokeWidth=2;" vertex="1" parent="1">
          <mxGeometry x="6474" y="1071" width="260" height="78" as="geometry" />
        </mxCell>
        <mxCell id="uUps8iylp9dzqpl-eoPC-25" value="Document: Copy of passport or ID" style="whiteSpace=wrap;strokeWidth=2;" vertex="1" parent="1">
          <mxGeometry x="3049" y="371" width="260" height="78" as="geometry" />
        </mxCell>
        <mxCell id="uUps8iylp9dzqpl-eoPC-26" value="Application Submission" style="whiteSpace=wrap;strokeWidth=2;" vertex="1" parent="1">
          <mxGeometry x="5526" y="1258" width="225" height="54" as="geometry" />
        </mxCell>
        <mxCell id="uUps8iylp9dzqpl-eoPC-27" value="Wait for application Review" style="whiteSpace=wrap;strokeWidth=2;" vertex="1" parent="1">
          <mxGeometry x="5512" y="1397" width="252" height="54" as="geometry" />
        </mxCell>
        <mxCell id="uUps8iylp9dzqpl-eoPC-28" value="Research English taught courses" style="whiteSpace=wrap;strokeWidth=2;" vertex="1" parent="1">
          <mxGeometry x="5583" y="540" width="260" height="78" as="geometry" />
        </mxCell>
        <mxCell id="uUps8iylp9dzqpl-eoPC-29" value="Select courses" style="whiteSpace=wrap;strokeWidth=2;" vertex="1" parent="1">
          <mxGeometry x="5631" y="650" width="165" height="54" as="geometry" />
        </mxCell>
        <mxCell id="uUps8iylp9dzqpl-eoPC-30" value="Create Learning Agreement" style="whiteSpace=wrap;strokeWidth=2;" vertex="1" parent="1">
          <mxGeometry x="5586" y="751" width="258" height="54" as="geometry" />
        </mxCell>
        <mxCell id="uUps8iylp9dzqpl-eoPC-31" value="Submit Learning Agreement for approval" style="whiteSpace=wrap;strokeWidth=2;" vertex="1" parent="1">
          <mxGeometry x="5584" y="840" width="260" height="78" as="geometry" />
        </mxCell>
        <mxCell id="uUps8iylp9dzqpl-eoPC-32" value="Receive approval confirmation" style="whiteSpace=wrap;strokeWidth=2;" vertex="1" parent="1">
          <mxGeometry x="5584" y="953" width="260" height="78" as="geometry" />
        </mxCell>
        <mxCell id="uUps8iylp9dzqpl-eoPC-33" value="Check Academic Calendar" style="whiteSpace=wrap;strokeWidth=2;" vertex="1" parent="1">
          <mxGeometry x="718" y="44" width="249" height="54" as="geometry" />
        </mxCell>
        <mxCell id="uUps8iylp9dzqpl-eoPC-34" value="Attend Information Sessions" style="whiteSpace=wrap;strokeWidth=2;" vertex="1" parent="1">
          <mxGeometry x="1263" y="32" width="260" height="78" as="geometry" />
        </mxCell>
        <mxCell id="uUps8iylp9dzqpl-eoPC-35" value="Enroll in Language Course" style="whiteSpace=wrap;strokeWidth=2;" vertex="1" parent="1">
          <mxGeometry x="1269" y="196" width="249" height="54" as="geometry" />
        </mxCell>
        <mxCell id="uUps8iylp9dzqpl-eoPC-39" value="Check immigration formalities" style="whiteSpace=wrap;strokeWidth=2;" vertex="1" parent="1">
          <mxGeometry x="3049" y="32" width="260" height="78" as="geometry" />
        </mxCell>
        <mxCell id="uUps8iylp9dzqpl-eoPC-40" value="Obtain passport" style="whiteSpace=wrap;strokeWidth=2;" vertex="1" parent="1">
          <mxGeometry x="3092" y="196" width="173" height="54" as="geometry" />
        </mxCell>
        <mxCell id="uUps8iylp9dzqpl-eoPC-41" value="Arrange insurance and permits" style="whiteSpace=wrap;strokeWidth=2;" vertex="1" parent="1">
          <mxGeometry x="2656" y="1675" width="260" height="78" as="geometry" />
        </mxCell>
        <mxCell id="uUps8iylp9dzqpl-eoPC-42" value="Apply for visa" style="whiteSpace=wrap;strokeWidth=2;" vertex="1" parent="1">
          <mxGeometry x="2527" y="1850" width="156" height="54" as="geometry" />
        </mxCell>
        <mxCell id="uUps8iylp9dzqpl-eoPC-43" value="Wait for visa approval" style="whiteSpace=wrap;strokeWidth=2;" vertex="1" parent="1">
          <mxGeometry x="3720" y="558" width="213" height="54" as="geometry" />
        </mxCell>
        <mxCell id="uUps8iylp9dzqpl-eoPC-44" value="Register for student residence" style="whiteSpace=wrap;strokeWidth=2;" vertex="1" parent="1">
          <mxGeometry x="5710" y="1609" width="260" height="78" as="geometry" />
        </mxCell>
        <mxCell id="uUps8iylp9dzqpl-eoPC-45" value="Receive admission letter" style="whiteSpace=wrap;strokeWidth=2;" vertex="1" parent="1">
          <mxGeometry x="5716" y="1710" width="234" height="54" as="geometry" />
        </mxCell>
        <mxCell id="uUps8iylp9dzqpl-eoPC-46" value="Pay Semester Contribution" style="whiteSpace=wrap;strokeWidth=2;" vertex="1" parent="1">
          <mxGeometry x="1803" y="44" width="251" height="54" as="geometry" />
        </mxCell>
        <mxCell id="uUps8iylp9dzqpl-eoPC-47" value="Enroll at HTW Dresden" style="whiteSpace=wrap;strokeWidth=2;" vertex="1" parent="1">
          <mxGeometry x="3600" y="896" width="225" height="54" as="geometry" />
        </mxCell>
        <mxCell id="uUps8iylp9dzqpl-eoPC-48" value="Information session on the organisation of your studies and the selection of your courses" style="whiteSpace=wrap;strokeWidth=2;" vertex="1" parent="1">
          <mxGeometry x="3583" y="1047" width="260" height="126" as="geometry" />
        </mxCell>
        <mxCell id="uUps8iylp9dzqpl-eoPC-49" value="Make an online appointment" style="whiteSpace=wrap;strokeWidth=2;" vertex="1" parent="1">
          <mxGeometry x="675" y="546" width="260" height="78" as="geometry" />
        </mxCell>
        <mxCell id="uUps8iylp9dzqpl-eoPC-50" value="Visit the Citizens&#39; Office" style="whiteSpace=wrap;strokeWidth=2;" vertex="1" parent="1">
          <mxGeometry x="692" y="721" width="227" height="54" as="geometry" />
        </mxCell>
        <mxCell id="uUps8iylp9dzqpl-eoPC-51" value="Submit required documents" style="whiteSpace=wrap;strokeWidth=2;" vertex="1" parent="1">
          <mxGeometry x="678" y="896" width="256" height="54" as="geometry" />
        </mxCell>
        <mxCell id="uUps8iylp9dzqpl-eoPC-52" value="Make an appointment" style="whiteSpace=wrap;strokeWidth=2;" vertex="1" parent="1">
          <mxGeometry x="8168" y="2037" width="214" height="54" as="geometry" />
        </mxCell>
        <mxCell id="uUps8iylp9dzqpl-eoPC-53" value="Submit application and documents" style="whiteSpace=wrap;strokeWidth=2;" vertex="1" parent="1">
          <mxGeometry x="5647" y="2200" width="260" height="78" as="geometry" />
        </mxCell>
        <mxCell id="uUps8iylp9dzqpl-eoPC-54" value="Wait for processing of Immigration Office" style="whiteSpace=wrap;strokeWidth=2;" vertex="1" parent="1">
          <mxGeometry x="5647" y="2328" width="260" height="78" as="geometry" />
        </mxCell>
        <mxCell id="uUps8iylp9dzqpl-eoPC-55" value="Open a German bank account" style="whiteSpace=wrap;strokeWidth=2;" vertex="1" parent="1">
          <mxGeometry x="347" y="1246" width="260" height="78" as="geometry" />
        </mxCell>
        <mxCell id="uUps8iylp9dzqpl-eoPC-56" value="Check Timetable" style="whiteSpace=wrap;strokeWidth=2;" vertex="1" parent="1">
          <mxGeometry x="1573" y="44" width="179" height="54" as="geometry" />
        </mxCell>
        <mxCell id="uUps8iylp9dzqpl-eoPC-57" value="Plan Lectures" style="whiteSpace=wrap;strokeWidth=2;" vertex="1" parent="1">
          <mxGeometry x="1584" y="196" width="158" height="54" as="geometry" />
        </mxCell>
        <mxCell id="uUps8iylp9dzqpl-eoPC-58" value="Enter Course Code" style="whiteSpace=wrap;strokeWidth=2;" vertex="1" parent="1">
          <mxGeometry x="1565" y="383" width="197" height="54" as="geometry" />
        </mxCell>
        <mxCell id="uUps8iylp9dzqpl-eoPC-59" value="Get Individual Timetable" style="whiteSpace=wrap;strokeWidth=2;" vertex="1" parent="1">
          <mxGeometry x="1547" y="558" width="232" height="54" as="geometry" />
        </mxCell>
        <mxCell id="uUps8iylp9dzqpl-eoPC-60" value="Register for Exams" style="whiteSpace=wrap;strokeWidth=2;" vertex="1" parent="1">
          <mxGeometry x="1017" y="44" width="196" height="54" as="geometry" />
        </mxCell>
        <mxCell id="uUps8iylp9dzqpl-eoPC-61" value="Get Exam Dates" style="whiteSpace=wrap;strokeWidth=2;" vertex="1" parent="1">
          <mxGeometry x="1027" y="196" width="177" height="54" as="geometry" />
        </mxCell>
        <mxCell id="uUps8iylp9dzqpl-eoPC-62" value="Deregister from Exam" style="whiteSpace=wrap;strokeWidth=2;" vertex="1" parent="1">
          <mxGeometry x="1008" y="383" width="216" height="54" as="geometry" />
        </mxCell>
        <mxCell id="uUps8iylp9dzqpl-eoPC-63" value="Take Exam" style="whiteSpace=wrap;strokeWidth=2;" vertex="1" parent="1">
          <mxGeometry x="1046" y="558" width="139" height="54" as="geometry" />
        </mxCell>
        <mxCell id="uUps8iylp9dzqpl-eoPC-64" value="Wait for grades to be reported" style="whiteSpace=wrap;strokeWidth=2;" vertex="1" parent="1">
          <mxGeometry x="985" y="709" width="260" height="78" as="geometry" />
        </mxCell>
        <mxCell id="uUps8iylp9dzqpl-eoPC-65" value="Request Transcript of Records" style="whiteSpace=wrap;strokeWidth=2;" vertex="1" parent="1">
          <mxGeometry x="985" y="884" width="260" height="78" as="geometry" />
        </mxCell>
        <mxCell id="uUps8iylp9dzqpl-eoPC-66" value="Confer with home university and Academic Coordinator" style="whiteSpace=wrap;strokeWidth=2;" vertex="1" parent="1">
          <mxGeometry x="2104" y="20" width="260" height="102" as="geometry" />
        </mxCell>
        <mxCell id="uUps8iylp9dzqpl-eoPC-67" value="Obtain the form for prolongation of matriculation" style="whiteSpace=wrap;strokeWidth=2;" vertex="1" parent="1">
          <mxGeometry x="2104" y="172" width="260" height="102" as="geometry" />
        </mxCell>
        <mxCell id="uUps8iylp9dzqpl-eoPC-68" value="Sign the form" style="whiteSpace=wrap;strokeWidth=2;" vertex="1" parent="1">
          <mxGeometry x="2156" y="383" width="155" height="54" as="geometry" />
        </mxCell>
        <mxCell id="uUps8iylp9dzqpl-eoPC-69" value="Complete a new Learning Agreement" style="whiteSpace=wrap;strokeWidth=2;" vertex="1" parent="1">
          <mxGeometry x="2104" y="546" width="260" height="78" as="geometry" />
        </mxCell>
        <mxCell id="uUps8iylp9dzqpl-eoPC-70" value="Hand in the signed prolongation of matriculation" style="whiteSpace=wrap;strokeWidth=2;" vertex="1" parent="1">
          <mxGeometry x="2104" y="697" width="260" height="102" as="geometry" />
        </mxCell>
        <mxCell id="uUps8iylp9dzqpl-eoPC-71" value="Schedule an appointment for prolongation of study visa" style="whiteSpace=wrap;strokeWidth=2;" vertex="1" parent="1">
          <mxGeometry x="2104" y="872" width="260" height="102" as="geometry" />
        </mxCell>
        <mxCell id="uUps8iylp9dzqpl-eoPC-72" value="Extend study visa" style="whiteSpace=wrap;strokeWidth=2;" vertex="1" parent="1">
          <mxGeometry x="2141" y="1083" width="185" height="54" as="geometry" />
        </mxCell>
        <mxCell id="uUps8iylp9dzqpl-eoPC-73" value="Re-register for the next semester" style="whiteSpace=wrap;strokeWidth=2;" vertex="1" parent="1">
          <mxGeometry x="2104" y="1246" width="260" height="78" as="geometry" />
        </mxCell>
        <mxCell id="uUps8iylp9dzqpl-eoPC-75" value="Close German bank account" style="whiteSpace=wrap;strokeWidth=2;" vertex="1" parent="1">
          <mxGeometry x="2605" y="32" width="260" height="78" as="geometry" />
        </mxCell>
        <mxCell id="uUps8iylp9dzqpl-eoPC-76" value="Return borrowed books" style="whiteSpace=wrap;strokeWidth=2;" vertex="1" parent="1">
          <mxGeometry x="2622" y="196" width="226" height="54" as="geometry" />
        </mxCell>
        <mxCell id="uUps8iylp9dzqpl-eoPC-77" value="Deregister from German Health Insurance" style="whiteSpace=wrap;strokeWidth=2;" vertex="1" parent="1">
          <mxGeometry x="2605" y="371" width="260" height="78" as="geometry" />
        </mxCell>
        <mxCell id="uUps8iylp9dzqpl-eoPC-78" value="Deregister from Citizens&#39; Office Dresden" style="whiteSpace=wrap;strokeWidth=2;" vertex="1" parent="1">
          <mxGeometry x="2795" y="546" width="260" height="78" as="geometry" />
        </mxCell>
        <mxCell id="uUps8iylp9dzqpl-eoPC-81" value="required" style="curved=1;startArrow=none;endArrow=block;exitX=0.5;exitY=1;entryX=0.75;entryY=0;rounded=0;entryDx=0;entryDy=0;" edge="1" parent="1" source="uUps8iylp9dzqpl-eoPC-16" target="uUps8iylp9dzqpl-eoPC-26">
          <mxGeometry x="-0.0986" y="-3" relative="1" as="geometry">
            <Array as="points">
              <mxPoint x="5713" y="1220" />
            </Array>
            <mxPoint as="offset" />
          </mxGeometry>
        </mxCell>
        <mxCell id="uUps8iylp9dzqpl-eoPC-82" value="required" style="curved=1;startArrow=none;endArrow=block;exitX=0.5;exitY=1;entryX=1;entryY=0.06;rounded=0;" edge="1" parent="1" source="uUps8iylp9dzqpl-eoPC-2" target="uUps8iylp9dzqpl-eoPC-26">
          <mxGeometry relative="1" as="geometry">
            <Array as="points">
              <mxPoint x="6000" y="1210" />
            </Array>
          </mxGeometry>
        </mxCell>
        <mxCell id="uUps8iylp9dzqpl-eoPC-84" value="required" style="curved=1;startArrow=none;endArrow=block;exitX=0.5;exitY=1;entryX=0.11;entryY=0;rounded=0;" edge="1" parent="1" source="uUps8iylp9dzqpl-eoPC-20" target="uUps8iylp9dzqpl-eoPC-26">
          <mxGeometry relative="1" as="geometry">
            <Array as="points">
              <mxPoint x="5396" y="1210" />
            </Array>
          </mxGeometry>
        </mxCell>
        <mxCell id="uUps8iylp9dzqpl-eoPC-85" value="required" style="curved=1;startArrow=none;endArrow=block;exitX=0.5;exitY=1;entryX=0;entryY=0.21;rounded=0;" edge="1" parent="1" source="uUps8iylp9dzqpl-eoPC-6" target="uUps8iylp9dzqpl-eoPC-26">
          <mxGeometry relative="1" as="geometry">
            <Array as="points">
              <mxPoint x="5086" y="1210" />
            </Array>
          </mxGeometry>
        </mxCell>
        <mxCell id="uUps8iylp9dzqpl-eoPC-88" value="required" style="curved=1;startArrow=none;endArrow=block;exitX=0.5;exitY=1;entryX=0;entryY=0.34;rounded=0;" edge="1" parent="1" source="uUps8iylp9dzqpl-eoPC-17" target="uUps8iylp9dzqpl-eoPC-26">
          <mxGeometry relative="1" as="geometry">
            <Array as="points">
              <mxPoint x="4673" y="1210" />
            </Array>
          </mxGeometry>
        </mxCell>
        <mxCell id="uUps8iylp9dzqpl-eoPC-89" value="" style="curved=1;startArrow=none;endArrow=block;exitX=0.5;exitY=1;entryX=0.5;entryY=0;rounded=0;" edge="1" parent="1" source="uUps8iylp9dzqpl-eoPC-26" target="uUps8iylp9dzqpl-eoPC-27">
          <mxGeometry relative="1" as="geometry">
            <Array as="points" />
          </mxGeometry>
        </mxCell>
        <mxCell id="uUps8iylp9dzqpl-eoPC-90" value="received" style="curved=1;startArrow=none;endArrow=block;exitX=0.5;exitY=1;entryX=0.5;entryY=0;rounded=0;entryDx=0;entryDy=0;" edge="1" parent="1" source="uUps8iylp9dzqpl-eoPC-27" target="uUps8iylp9dzqpl-eoPC-7">
          <mxGeometry relative="1" as="geometry">
            <Array as="points">
              <mxPoint x="5638" y="1488" />
            </Array>
          </mxGeometry>
        </mxCell>
        <mxCell id="uUps8iylp9dzqpl-eoPC-91" value="" style="curved=1;startArrow=none;endArrow=block;exitX=0.5;exitY=1;entryX=0.5;entryY=0;rounded=0;" edge="1" parent="1" source="uUps8iylp9dzqpl-eoPC-28" target="uUps8iylp9dzqpl-eoPC-29">
          <mxGeometry relative="1" as="geometry">
            <Array as="points" />
          </mxGeometry>
        </mxCell>
        <mxCell id="uUps8iylp9dzqpl-eoPC-92" value="" style="curved=1;startArrow=none;endArrow=block;exitX=0.5;exitY=1;entryX=0.5;entryY=0;rounded=0;exitDx=0;exitDy=0;" edge="1" parent="1" source="uUps8iylp9dzqpl-eoPC-29" target="uUps8iylp9dzqpl-eoPC-30">
          <mxGeometry relative="1" as="geometry">
            <Array as="points" />
          </mxGeometry>
        </mxCell>
        <mxCell id="uUps8iylp9dzqpl-eoPC-93" value="" style="curved=1;startArrow=none;endArrow=block;exitX=0.5;exitY=1;entryX=0.5;entryY=0;rounded=0;" edge="1" parent="1" source="uUps8iylp9dzqpl-eoPC-30" target="uUps8iylp9dzqpl-eoPC-31">
          <mxGeometry relative="1" as="geometry">
            <Array as="points" />
          </mxGeometry>
        </mxCell>
        <mxCell id="uUps8iylp9dzqpl-eoPC-94" value="" style="curved=1;startArrow=none;endArrow=block;exitX=0.5;exitY=1;entryX=0.5;entryY=0;rounded=0;" edge="1" parent="1" source="uUps8iylp9dzqpl-eoPC-31" target="uUps8iylp9dzqpl-eoPC-32">
          <mxGeometry relative="1" as="geometry">
            <Array as="points" />
          </mxGeometry>
        </mxCell>
        <mxCell id="uUps8iylp9dzqpl-eoPC-95" value="received" style="curved=1;startArrow=none;endArrow=block;exitX=0.5;exitY=1;entryX=0.5;entryY=0;rounded=0;" edge="1" parent="1" source="uUps8iylp9dzqpl-eoPC-32" target="uUps8iylp9dzqpl-eoPC-16">
          <mxGeometry relative="1" as="geometry">
            <Array as="points" />
          </mxGeometry>
        </mxCell>
        <mxCell id="uUps8iylp9dzqpl-eoPC-96" value="" style="curved=1;startArrow=none;endArrow=block;exitX=0.5;exitY=1;entryX=0.5;entryY=0;rounded=0;" edge="1" parent="1" source="uUps8iylp9dzqpl-eoPC-34" target="uUps8iylp9dzqpl-eoPC-35">
          <mxGeometry relative="1" as="geometry">
            <Array as="points" />
          </mxGeometry>
        </mxCell>
        <mxCell id="uUps8iylp9dzqpl-eoPC-103" value="" style="curved=1;startArrow=none;endArrow=block;exitX=0.5;exitY=1;entryX=0.5;entryY=0;rounded=0;" edge="1" parent="1" source="uUps8iylp9dzqpl-eoPC-39" target="uUps8iylp9dzqpl-eoPC-40">
          <mxGeometry relative="1" as="geometry">
            <Array as="points" />
          </mxGeometry>
        </mxCell>
        <mxCell id="uUps8iylp9dzqpl-eoPC-104" value="received" style="curved=1;startArrow=none;endArrow=block;exitX=0.5;exitY=1;entryX=0.5;entryY=0;rounded=0;" edge="1" parent="1" source="uUps8iylp9dzqpl-eoPC-40" target="uUps8iylp9dzqpl-eoPC-25">
          <mxGeometry relative="1" as="geometry">
            <Array as="points" />
          </mxGeometry>
        </mxCell>
        <mxCell id="uUps8iylp9dzqpl-eoPC-105" value="required" style="curved=1;startArrow=none;endArrow=block;exitX=0;exitY=0.56;entryX=0.78;entryY=0;rounded=0;" edge="1" parent="1" source="uUps8iylp9dzqpl-eoPC-7" target="uUps8iylp9dzqpl-eoPC-41">
          <mxGeometry relative="1" as="geometry">
            <Array as="points">
              <mxPoint x="2925" y="1639" />
            </Array>
          </mxGeometry>
        </mxCell>
        <mxCell id="uUps8iylp9dzqpl-eoPC-106" value="required" style="curved=1;startArrow=none;endArrow=block;exitX=0;exitY=0.9;entryX=0.45;entryY=0;rounded=0;" edge="1" parent="1" source="uUps8iylp9dzqpl-eoPC-25" target="uUps8iylp9dzqpl-eoPC-41">
          <mxGeometry relative="1" as="geometry">
            <Array as="points">
              <mxPoint x="2760" y="510" />
              <mxPoint x="2760" y="1639" />
            </Array>
          </mxGeometry>
        </mxCell>
        <mxCell id="uUps8iylp9dzqpl-eoPC-107" value="" style="curved=1;startArrow=none;endArrow=block;exitX=0.5;exitY=1;entryX=0.86;entryY=0;rounded=0;" edge="1" parent="1" source="uUps8iylp9dzqpl-eoPC-41" target="uUps8iylp9dzqpl-eoPC-42">
          <mxGeometry relative="1" as="geometry">
            <Array as="points">
              <mxPoint x="2786" y="1790" />
            </Array>
          </mxGeometry>
        </mxCell>
        <mxCell id="uUps8iylp9dzqpl-eoPC-108" value="" style="curved=1;startArrow=none;endArrow=block;exitX=0.09;exitY=0;entryX=0;entryY=0.6;rounded=0;" edge="1" parent="1" source="uUps8iylp9dzqpl-eoPC-42" target="uUps8iylp9dzqpl-eoPC-43">
          <mxGeometry relative="1" as="geometry">
            <Array as="points">
              <mxPoint x="2399" y="1790" />
              <mxPoint x="2399" y="661" />
            </Array>
          </mxGeometry>
        </mxCell>
        <mxCell id="uUps8iylp9dzqpl-eoPC-110" value="required" style="curved=1;startArrow=none;endArrow=block;exitX=0;exitY=0.77;entryX=0.73;entryY=0;rounded=0;" edge="1" parent="1" source="uUps8iylp9dzqpl-eoPC-23" target="uUps8iylp9dzqpl-eoPC-43">
          <mxGeometry relative="1" as="geometry">
            <Array as="points">
              <mxPoint x="3963" y="510" />
            </Array>
          </mxGeometry>
        </mxCell>
        <mxCell id="uUps8iylp9dzqpl-eoPC-113" value="required" style="curved=1;startArrow=none;endArrow=block;exitX=0;exitY=0.72;entryX=0.59;entryY=0;rounded=0;" edge="1" parent="1" source="uUps8iylp9dzqpl-eoPC-1" target="uUps8iylp9dzqpl-eoPC-43">
          <mxGeometry relative="1" as="geometry">
            <Array as="points">
              <mxPoint x="3880" y="510" />
            </Array>
          </mxGeometry>
        </mxCell>
        <mxCell id="uUps8iylp9dzqpl-eoPC-114" value="required" style="curved=1;startArrow=none;endArrow=block;exitX=0;exitY=0.33;entryX=1;entryY=0.73;rounded=0;" edge="1" parent="1" source="uUps8iylp9dzqpl-eoPC-7" target="uUps8iylp9dzqpl-eoPC-43">
          <mxGeometry relative="1" as="geometry">
            <Array as="points">
              <mxPoint x="4476" y="1488" />
              <mxPoint x="4476" y="661" />
            </Array>
          </mxGeometry>
        </mxCell>
        <mxCell id="uUps8iylp9dzqpl-eoPC-115" value="required" style="curved=1;startArrow=none;endArrow=block;exitX=0.04;exitY=1;entryX=0.33;entryY=0;rounded=0;" edge="1" parent="1" source="uUps8iylp9dzqpl-eoPC-22" target="uUps8iylp9dzqpl-eoPC-43">
          <mxGeometry relative="1" as="geometry">
            <Array as="points">
              <mxPoint x="3725" y="510" />
            </Array>
          </mxGeometry>
        </mxCell>
        <mxCell id="uUps8iylp9dzqpl-eoPC-116" value="required" style="curved=1;startArrow=none;endArrow=block;exitX=1;exitY=0.86;entryX=0.19;entryY=0;rounded=0;" edge="1" parent="1" source="uUps8iylp9dzqpl-eoPC-25" target="uUps8iylp9dzqpl-eoPC-43">
          <mxGeometry relative="1" as="geometry">
            <Array as="points">
              <mxPoint x="3642" y="510" />
            </Array>
          </mxGeometry>
        </mxCell>
        <mxCell id="uUps8iylp9dzqpl-eoPC-117" value="received" style="curved=1;startArrow=none;endArrow=block;exitX=0;exitY=0.62;entryX=0.5;entryY=0;rounded=0;" edge="1" parent="1" source="uUps8iylp9dzqpl-eoPC-43" target="uUps8iylp9dzqpl-eoPC-10">
          <mxGeometry relative="1" as="geometry">
            <Array as="points">
              <mxPoint x="2580" y="661" />
            </Array>
          </mxGeometry>
        </mxCell>
        <mxCell id="uUps8iylp9dzqpl-eoPC-118" value="required" style="curved=1;startArrow=none;endArrow=block;exitX=1;exitY=0.56;entryX=0.5;entryY=0;rounded=0;" edge="1" parent="1" source="uUps8iylp9dzqpl-eoPC-7" target="uUps8iylp9dzqpl-eoPC-44">
          <mxGeometry x="0.5715" y="-8" relative="1" as="geometry">
            <Array as="points">
              <mxPoint x="5840" y="1559" />
            </Array>
            <mxPoint as="offset" />
          </mxGeometry>
        </mxCell>
        <mxCell id="uUps8iylp9dzqpl-eoPC-119" value="" style="curved=1;startArrow=none;endArrow=block;exitX=0.5;exitY=1;entryX=0.5;entryY=0;rounded=0;" edge="1" parent="1" source="uUps8iylp9dzqpl-eoPC-44" target="uUps8iylp9dzqpl-eoPC-45">
          <mxGeometry relative="1" as="geometry">
            <Array as="points" />
          </mxGeometry>
        </mxCell>
        <mxCell id="uUps8iylp9dzqpl-eoPC-120" value="received" style="curved=1;startArrow=none;endArrow=block;exitX=0.5;exitY=1;entryX=0.62;entryY=0;rounded=0;" edge="1" parent="1" source="uUps8iylp9dzqpl-eoPC-45" target="uUps8iylp9dzqpl-eoPC-9">
          <mxGeometry relative="1" as="geometry">
            <Array as="points">
              <mxPoint x="5833" y="1800" />
            </Array>
          </mxGeometry>
        </mxCell>
        <mxCell id="uUps8iylp9dzqpl-eoPC-122" value="" style="curved=1;startArrow=none;endArrow=block;exitX=0.5;exitY=1;entryX=0.66;entryY=0;rounded=0;" edge="1" parent="1" source="uUps8iylp9dzqpl-eoPC-43" target="uUps8iylp9dzqpl-eoPC-47">
          <mxGeometry relative="1" as="geometry">
            <Array as="points">
              <mxPoint x="3826" y="836" />
            </Array>
          </mxGeometry>
        </mxCell>
        <mxCell id="uUps8iylp9dzqpl-eoPC-123" value="required" style="curved=1;startArrow=none;endArrow=block;exitX=0.99;exitY=1;entryX=0.21;entryY=0;rounded=0;" edge="1" parent="1" source="uUps8iylp9dzqpl-eoPC-25" target="uUps8iylp9dzqpl-eoPC-47">
          <mxGeometry relative="1" as="geometry">
            <Array as="points">
              <mxPoint x="3503" y="510" />
              <mxPoint x="3503" y="836" />
            </Array>
          </mxGeometry>
        </mxCell>
        <mxCell id="uUps8iylp9dzqpl-eoPC-124" value="required" style="curved=1;startArrow=none;endArrow=block;exitX=1;exitY=0.67;entryX=0.12;entryY=0;rounded=0;" edge="1" parent="1" source="uUps8iylp9dzqpl-eoPC-10" target="uUps8iylp9dzqpl-eoPC-47">
          <mxGeometry relative="1" as="geometry">
            <Array as="points">
              <mxPoint x="3436" y="836" />
            </Array>
          </mxGeometry>
        </mxCell>
        <mxCell id="uUps8iylp9dzqpl-eoPC-126" value="required" style="curved=1;startArrow=none;endArrow=block;exitX=0.5;exitY=1;entryX=0;entryY=0.01;rounded=0;" edge="1" parent="1" source="uUps8iylp9dzqpl-eoPC-19" target="uUps8iylp9dzqpl-eoPC-47">
          <mxGeometry relative="1" as="geometry">
            <Array as="points">
              <mxPoint x="3338" y="836" />
            </Array>
          </mxGeometry>
        </mxCell>
        <mxCell id="uUps8iylp9dzqpl-eoPC-127" value="received" style="curved=1;startArrow=none;endArrow=block;exitX=0;exitY=0.66;entryX=0.5;entryY=0;rounded=0;" edge="1" parent="1" source="uUps8iylp9dzqpl-eoPC-47" target="uUps8iylp9dzqpl-eoPC-18">
          <mxGeometry relative="1" as="geometry">
            <Array as="points">
              <mxPoint x="2564" y="1011" />
            </Array>
          </mxGeometry>
        </mxCell>
        <mxCell id="uUps8iylp9dzqpl-eoPC-128" value="received" style="curved=1;startArrow=none;endArrow=block;exitX=1;exitY=0.69;entryX=0.5;entryY=0;rounded=0;" edge="1" parent="1" source="uUps8iylp9dzqpl-eoPC-47" target="uUps8iylp9dzqpl-eoPC-17">
          <mxGeometry relative="1" as="geometry">
            <Array as="points">
              <mxPoint x="4673" y="1011" />
            </Array>
          </mxGeometry>
        </mxCell>
        <mxCell id="uUps8iylp9dzqpl-eoPC-129" value="received" style="curved=1;startArrow=none;endArrow=block;exitX=0;exitY=0.55;entryX=0.5;entryY=0;rounded=0;" edge="1" parent="1" source="uUps8iylp9dzqpl-eoPC-47" target="uUps8iylp9dzqpl-eoPC-5">
          <mxGeometry relative="1" as="geometry">
            <Array as="points">
              <mxPoint x="185" y="1011" />
            </Array>
          </mxGeometry>
        </mxCell>
        <mxCell id="uUps8iylp9dzqpl-eoPC-130" value="" style="curved=1;startArrow=none;endArrow=block;exitX=0.5;exitY=1;entryX=0.5;entryY=0;rounded=0;" edge="1" parent="1" source="uUps8iylp9dzqpl-eoPC-47" target="uUps8iylp9dzqpl-eoPC-48">
          <mxGeometry relative="1" as="geometry">
            <Array as="points" />
          </mxGeometry>
        </mxCell>
        <mxCell id="uUps8iylp9dzqpl-eoPC-131" value="" style="curved=1;startArrow=none;endArrow=block;exitX=0.5;exitY=1;entryX=0.5;entryY=0;rounded=0;" edge="1" parent="1" source="uUps8iylp9dzqpl-eoPC-49" target="uUps8iylp9dzqpl-eoPC-50">
          <mxGeometry relative="1" as="geometry">
            <Array as="points" />
          </mxGeometry>
        </mxCell>
        <mxCell id="uUps8iylp9dzqpl-eoPC-132" value="" style="curved=1;startArrow=none;endArrow=block;exitX=0.5;exitY=1;entryX=0.5;entryY=0;rounded=0;" edge="1" parent="1" source="uUps8iylp9dzqpl-eoPC-50" target="uUps8iylp9dzqpl-eoPC-51">
          <mxGeometry relative="1" as="geometry">
            <Array as="points" />
          </mxGeometry>
        </mxCell>
        <mxCell id="uUps8iylp9dzqpl-eoPC-133" value="received" style="curved=1;startArrow=none;endArrow=block;exitX=0.5;exitY=1;entryX=0.5;entryY=0;rounded=0;" edge="1" parent="1" source="uUps8iylp9dzqpl-eoPC-51" target="uUps8iylp9dzqpl-eoPC-14">
          <mxGeometry relative="1" as="geometry">
            <Array as="points" />
          </mxGeometry>
        </mxCell>
        <mxCell id="uUps8iylp9dzqpl-eoPC-134" value="" style="curved=1;startArrow=none;endArrow=block;exitX=0.5;exitY=1;entryX=1;entryY=0.45;rounded=0;" edge="1" parent="1" source="uUps8iylp9dzqpl-eoPC-52" target="uUps8iylp9dzqpl-eoPC-53">
          <mxGeometry relative="1" as="geometry">
            <Array as="points">
              <mxPoint x="8275" y="2164" />
            </Array>
          </mxGeometry>
        </mxCell>
        <mxCell id="uUps8iylp9dzqpl-eoPC-135" value="required" style="curved=1;startArrow=none;endArrow=block;exitX=0.5;exitY=1;entryX=1;entryY=0.44;rounded=0;" edge="1" parent="1" source="uUps8iylp9dzqpl-eoPC-3" target="uUps8iylp9dzqpl-eoPC-53">
          <mxGeometry relative="1" as="geometry">
            <Array as="points">
              <mxPoint x="7988" y="2164" />
            </Array>
          </mxGeometry>
        </mxCell>
        <mxCell id="uUps8iylp9dzqpl-eoPC-136" value="required" style="curved=1;startArrow=none;endArrow=block;exitX=0.5;exitY=1;entryX=1;entryY=0.43;rounded=0;" edge="1" parent="1" source="uUps8iylp9dzqpl-eoPC-4" target="uUps8iylp9dzqpl-eoPC-53">
          <mxGeometry relative="1" as="geometry">
            <Array as="points">
              <mxPoint x="7678" y="2164" />
            </Array>
          </mxGeometry>
        </mxCell>
        <mxCell id="uUps8iylp9dzqpl-eoPC-137" value="required" style="curved=1;startArrow=none;endArrow=block;exitX=0.5;exitY=1;entryX=1;entryY=0.42;rounded=0;" edge="1" parent="1" source="uUps8iylp9dzqpl-eoPC-9" target="uUps8iylp9dzqpl-eoPC-53">
          <mxGeometry relative="1" as="geometry">
            <Array as="points">
              <mxPoint x="5960" y="2090" />
            </Array>
          </mxGeometry>
        </mxCell>
        <mxCell id="uUps8iylp9dzqpl-eoPC-139" value="required" style="curved=1;startArrow=none;endArrow=block;exitX=0;exitY=0.93;entryX=0;entryY=0.42;rounded=0;" edge="1" parent="1" source="uUps8iylp9dzqpl-eoPC-1" target="uUps8iylp9dzqpl-eoPC-53">
          <mxGeometry relative="1" as="geometry">
            <Array as="points">
              <mxPoint x="4260" y="510" />
              <mxPoint x="4260" y="2164" />
            </Array>
          </mxGeometry>
        </mxCell>
        <mxCell id="uUps8iylp9dzqpl-eoPC-140" value="required" style="curved=1;startArrow=none;endArrow=block;exitX=0;exitY=0.59;entryX=0;entryY=0.44;rounded=0;" edge="1" parent="1" source="uUps8iylp9dzqpl-eoPC-7" target="uUps8iylp9dzqpl-eoPC-53">
          <mxGeometry relative="1" as="geometry">
            <Array as="points">
              <mxPoint x="3803" y="1639" />
              <mxPoint x="3803" y="2164" />
            </Array>
          </mxGeometry>
        </mxCell>
        <mxCell id="uUps8iylp9dzqpl-eoPC-141" value="required" style="curved=1;startArrow=none;endArrow=block;exitX=0;exitY=0.69;entryX=0;entryY=0.45;rounded=0;" edge="1" parent="1" source="uUps8iylp9dzqpl-eoPC-22" target="uUps8iylp9dzqpl-eoPC-53">
          <mxGeometry relative="1" as="geometry">
            <Array as="points">
              <mxPoint x="3173" y="510" />
              <mxPoint x="3173" y="2164" />
            </Array>
          </mxGeometry>
        </mxCell>
        <mxCell id="uUps8iylp9dzqpl-eoPC-142" value="required" style="curved=1;startArrow=none;endArrow=block;exitX=0.37;exitY=1;entryX=0;entryY=0.45;rounded=0;" edge="1" parent="1" source="uUps8iylp9dzqpl-eoPC-25" target="uUps8iylp9dzqpl-eoPC-53">
          <mxGeometry relative="1" as="geometry">
            <Array as="points">
              <mxPoint x="3090" y="510" />
              <mxPoint x="3090" y="2164" />
            </Array>
          </mxGeometry>
        </mxCell>
        <mxCell id="uUps8iylp9dzqpl-eoPC-143" value="required" style="curved=1;startArrow=none;endArrow=block;exitX=0;exitY=0.56;entryX=0;entryY=0.48;rounded=0;" edge="1" parent="1" source="uUps8iylp9dzqpl-eoPC-10" target="uUps8iylp9dzqpl-eoPC-53">
          <mxGeometry relative="1" as="geometry">
            <Array as="points">
              <mxPoint x="20" y="836" />
              <mxPoint x="20" y="2164" />
            </Array>
          </mxGeometry>
        </mxCell>
        <mxCell id="uUps8iylp9dzqpl-eoPC-144" value="" style="curved=1;startArrow=none;endArrow=block;exitX=0.5;exitY=1;entryX=0.5;entryY=0;rounded=0;" edge="1" parent="1" source="uUps8iylp9dzqpl-eoPC-53" target="uUps8iylp9dzqpl-eoPC-54">
          <mxGeometry relative="1" as="geometry">
            <Array as="points" />
          </mxGeometry>
        </mxCell>
        <mxCell id="uUps8iylp9dzqpl-eoPC-145" value="received" style="curved=1;startArrow=none;endArrow=block;exitX=0.5;exitY=1;entryX=0.5;entryY=0;rounded=0;" edge="1" parent="1" source="uUps8iylp9dzqpl-eoPC-54" target="uUps8iylp9dzqpl-eoPC-15">
          <mxGeometry relative="1" as="geometry">
            <Array as="points" />
          </mxGeometry>
        </mxCell>
        <mxCell id="uUps8iylp9dzqpl-eoPC-146" value="required" style="curved=1;startArrow=none;endArrow=block;exitX=0;exitY=0.59;entryX=1;entryY=0.36;rounded=0;" edge="1" parent="1" source="uUps8iylp9dzqpl-eoPC-25" target="uUps8iylp9dzqpl-eoPC-55">
          <mxGeometry relative="1" as="geometry">
            <Array as="points">
              <mxPoint x="1396" y="510" />
              <mxPoint x="1396" y="1210" />
            </Array>
          </mxGeometry>
        </mxCell>
        <mxCell id="uUps8iylp9dzqpl-eoPC-147" value="required" style="curved=1;startArrow=none;endArrow=block;exitX=0.5;exitY=1;entryX=1;entryY=0.12;rounded=0;" edge="1" parent="1" source="uUps8iylp9dzqpl-eoPC-14" target="uUps8iylp9dzqpl-eoPC-55">
          <mxGeometry relative="1" as="geometry">
            <Array as="points">
              <mxPoint x="805" y="1210" />
            </Array>
          </mxGeometry>
        </mxCell>
        <mxCell id="uUps8iylp9dzqpl-eoPC-148" value="required" style="curved=1;startArrow=none;endArrow=block;exitX=0.5;exitY=1;entryX=0.54;entryY=0;rounded=0;" edge="1" parent="1" source="uUps8iylp9dzqpl-eoPC-21" target="uUps8iylp9dzqpl-eoPC-55">
          <mxGeometry relative="1" as="geometry">
            <Array as="points">
              <mxPoint x="495" y="1210" />
            </Array>
          </mxGeometry>
        </mxCell>
        <mxCell id="uUps8iylp9dzqpl-eoPC-149" value="required" style="curved=1;startArrow=none;endArrow=block;exitX=0.5;exitY=1;entryX=0;entryY=0.07;rounded=0;" edge="1" parent="1" source="uUps8iylp9dzqpl-eoPC-5" target="uUps8iylp9dzqpl-eoPC-55">
          <mxGeometry relative="1" as="geometry">
            <Array as="points">
              <mxPoint x="185" y="1210" />
            </Array>
          </mxGeometry>
        </mxCell>
        <mxCell id="uUps8iylp9dzqpl-eoPC-150" value="" style="curved=1;startArrow=none;endArrow=block;exitX=0.5;exitY=1;entryX=0.5;entryY=0;rounded=0;" edge="1" parent="1" source="uUps8iylp9dzqpl-eoPC-56" target="uUps8iylp9dzqpl-eoPC-57">
          <mxGeometry relative="1" as="geometry">
            <Array as="points" />
          </mxGeometry>
        </mxCell>
        <mxCell id="uUps8iylp9dzqpl-eoPC-151" value="" style="curved=1;startArrow=none;endArrow=block;exitX=0.5;exitY=1;entryX=0.5;entryY=0;rounded=0;" edge="1" parent="1" source="uUps8iylp9dzqpl-eoPC-57" target="uUps8iylp9dzqpl-eoPC-58">
          <mxGeometry relative="1" as="geometry">
            <Array as="points" />
          </mxGeometry>
        </mxCell>
        <mxCell id="uUps8iylp9dzqpl-eoPC-152" value="" style="curved=1;startArrow=none;endArrow=block;exitX=0.5;exitY=1;entryX=0.5;entryY=0;rounded=0;" edge="1" parent="1" source="uUps8iylp9dzqpl-eoPC-58" target="uUps8iylp9dzqpl-eoPC-59">
          <mxGeometry relative="1" as="geometry">
            <Array as="points" />
          </mxGeometry>
        </mxCell>
        <mxCell id="uUps8iylp9dzqpl-eoPC-153" value="" style="curved=1;startArrow=none;endArrow=block;exitX=0.5;exitY=1;entryX=0.5;entryY=0;rounded=0;" edge="1" parent="1" source="uUps8iylp9dzqpl-eoPC-60" target="uUps8iylp9dzqpl-eoPC-61">
          <mxGeometry relative="1" as="geometry">
            <Array as="points" />
          </mxGeometry>
        </mxCell>
        <mxCell id="uUps8iylp9dzqpl-eoPC-154" value="" style="curved=1;startArrow=none;endArrow=block;exitX=0.5;exitY=1;entryX=0.5;entryY=0;rounded=0;" edge="1" parent="1" source="uUps8iylp9dzqpl-eoPC-61" target="uUps8iylp9dzqpl-eoPC-62">
          <mxGeometry relative="1" as="geometry">
            <Array as="points" />
          </mxGeometry>
        </mxCell>
        <mxCell id="uUps8iylp9dzqpl-eoPC-155" value="" style="curved=1;startArrow=none;endArrow=block;exitX=0.5;exitY=1;entryX=0.5;entryY=0;rounded=0;" edge="1" parent="1" source="uUps8iylp9dzqpl-eoPC-62" target="uUps8iylp9dzqpl-eoPC-63">
          <mxGeometry relative="1" as="geometry">
            <Array as="points" />
          </mxGeometry>
        </mxCell>
        <mxCell id="uUps8iylp9dzqpl-eoPC-156" value="" style="curved=1;startArrow=none;endArrow=block;exitX=0.5;exitY=1;entryX=0.5;entryY=0;rounded=0;" edge="1" parent="1" source="uUps8iylp9dzqpl-eoPC-63" target="uUps8iylp9dzqpl-eoPC-64">
          <mxGeometry relative="1" as="geometry">
            <Array as="points" />
          </mxGeometry>
        </mxCell>
        <mxCell id="uUps8iylp9dzqpl-eoPC-157" value="" style="curved=1;startArrow=none;endArrow=block;exitX=0.5;exitY=1;entryX=0.5;entryY=0;rounded=0;" edge="1" parent="1" source="uUps8iylp9dzqpl-eoPC-64" target="uUps8iylp9dzqpl-eoPC-65">
          <mxGeometry relative="1" as="geometry">
            <Array as="points" />
          </mxGeometry>
        </mxCell>
        <mxCell id="uUps8iylp9dzqpl-eoPC-158" value="received" style="curved=1;startArrow=none;endArrow=block;exitX=0.5;exitY=1;entryX=0.5;entryY=0;rounded=0;" edge="1" parent="1" source="uUps8iylp9dzqpl-eoPC-65" target="uUps8iylp9dzqpl-eoPC-13">
          <mxGeometry relative="1" as="geometry">
            <Array as="points" />
          </mxGeometry>
        </mxCell>
        <mxCell id="uUps8iylp9dzqpl-eoPC-159" value="" style="curved=1;startArrow=none;endArrow=block;exitX=0.5;exitY=1;entryX=0.5;entryY=0;rounded=0;" edge="1" parent="1" source="uUps8iylp9dzqpl-eoPC-66" target="uUps8iylp9dzqpl-eoPC-67">
          <mxGeometry relative="1" as="geometry">
            <Array as="points" />
          </mxGeometry>
        </mxCell>
        <mxCell id="uUps8iylp9dzqpl-eoPC-160" value="" style="curved=1;startArrow=none;endArrow=block;exitX=0.5;exitY=1;entryX=0.5;entryY=0;rounded=0;" edge="1" parent="1" source="uUps8iylp9dzqpl-eoPC-67" target="uUps8iylp9dzqpl-eoPC-68">
          <mxGeometry relative="1" as="geometry">
            <Array as="points" />
          </mxGeometry>
        </mxCell>
        <mxCell id="uUps8iylp9dzqpl-eoPC-161" value="" style="curved=1;startArrow=none;endArrow=block;exitX=0.5;exitY=1;entryX=0.5;entryY=0;rounded=0;" edge="1" parent="1" source="uUps8iylp9dzqpl-eoPC-68" target="uUps8iylp9dzqpl-eoPC-69">
          <mxGeometry relative="1" as="geometry">
            <Array as="points" />
          </mxGeometry>
        </mxCell>
        <mxCell id="uUps8iylp9dzqpl-eoPC-162" value="" style="curved=1;startArrow=none;endArrow=block;exitX=0.5;exitY=1;entryX=0.5;entryY=0;rounded=0;" edge="1" parent="1" source="uUps8iylp9dzqpl-eoPC-69" target="uUps8iylp9dzqpl-eoPC-70">
          <mxGeometry relative="1" as="geometry">
            <Array as="points" />
          </mxGeometry>
        </mxCell>
        <mxCell id="uUps8iylp9dzqpl-eoPC-163" value="" style="curved=1;startArrow=none;endArrow=block;exitX=0.5;exitY=1;entryX=0.5;entryY=0;rounded=0;" edge="1" parent="1" source="uUps8iylp9dzqpl-eoPC-70" target="uUps8iylp9dzqpl-eoPC-71">
          <mxGeometry relative="1" as="geometry">
            <Array as="points" />
          </mxGeometry>
        </mxCell>
        <mxCell id="uUps8iylp9dzqpl-eoPC-164" value="" style="curved=1;startArrow=none;endArrow=block;exitX=0.5;exitY=1;entryX=0.5;entryY=0;rounded=0;" edge="1" parent="1" source="uUps8iylp9dzqpl-eoPC-71" target="uUps8iylp9dzqpl-eoPC-72">
          <mxGeometry relative="1" as="geometry">
            <Array as="points" />
          </mxGeometry>
        </mxCell>
        <mxCell id="uUps8iylp9dzqpl-eoPC-165" value="" style="curved=1;startArrow=none;endArrow=block;exitX=0.5;exitY=1;entryX=0.5;entryY=0;rounded=0;" edge="1" parent="1" source="uUps8iylp9dzqpl-eoPC-72" target="uUps8iylp9dzqpl-eoPC-73">
          <mxGeometry relative="1" as="geometry">
            <Array as="points" />
          </mxGeometry>
        </mxCell>
        <mxCell id="uUps8iylp9dzqpl-eoPC-166" value="" style="curved=1;startArrow=none;endArrow=block;exitX=0.5;exitY=1;entryX=0.5;entryY=0;rounded=0;" edge="1" parent="1" source="uUps8iylp9dzqpl-eoPC-75" target="uUps8iylp9dzqpl-eoPC-76">
          <mxGeometry relative="1" as="geometry">
            <Array as="points" />
          </mxGeometry>
        </mxCell>
        <mxCell id="uUps8iylp9dzqpl-eoPC-167" value="" style="curved=1;startArrow=none;endArrow=block;exitX=0.5;exitY=1;entryX=0.5;entryY=0;rounded=0;" edge="1" parent="1" source="uUps8iylp9dzqpl-eoPC-76" target="uUps8iylp9dzqpl-eoPC-77">
          <mxGeometry relative="1" as="geometry">
            <Array as="points" />
          </mxGeometry>
        </mxCell>
        <mxCell id="uUps8iylp9dzqpl-eoPC-168" value="" style="curved=1;startArrow=none;endArrow=block;exitX=0.79;exitY=1;entryX=0.5;entryY=0;rounded=0;" edge="1" parent="1" source="uUps8iylp9dzqpl-eoPC-77" target="uUps8iylp9dzqpl-eoPC-78">
          <mxGeometry relative="1" as="geometry">
            <Array as="points">
              <mxPoint x="2925" y="510" />
            </Array>
          </mxGeometry>
        </mxCell>
      </root>
    </mxGraphModel>
  </diagram>
</mxfile>
